<mxfile host="65bd71144e">
    <diagram id="IeqN9PdBWZHurF_H_65i" name="Page-1">
        <mxGraphModel dx="1967" dy="643" grid="1" gridSize="10" guides="1" tooltips="1" connect="1" arrows="1" fold="1" page="1" pageScale="1" pageWidth="827" pageHeight="1169" math="0" shadow="0">
            <root>
                <mxCell id="0"/>
                <mxCell id="1" parent="0"/>
                <mxCell id="6" value="" style="image;html=1;image=img/lib/clip_art/computers/Laptop_128x128.png" parent="1" vertex="1">
                    <mxGeometry x="-790" y="29" width="70" height="70" as="geometry"/>
                </mxCell>
                <mxCell id="10" value="Cliente&lt;br&gt;" style="text;html=1;strokeColor=none;fillColor=none;align=center;verticalAlign=middle;whiteSpace=wrap;rounded=0;fontFamily=Helvetica;fontSize=12;" parent="1" vertex="1">
                    <mxGeometry x="-785" y="93.6" width="60" height="30" as="geometry"/>
                </mxCell>
                <mxCell id="12" value="" style="sketch=0;aspect=fixed;html=1;points=[];align=center;image;fontSize=12;image=img/lib/mscae/Cache_Redis_Product.svg;fontFamily=Helvetica;" parent="1" vertex="1">
                    <mxGeometry x="-306" y="47.2" width="50" height="42" as="geometry"/>
                </mxCell>
                <mxCell id="13" value="" style="dashed=0;outlineConnect=0;html=1;align=center;labelPosition=center;verticalLabelPosition=bottom;verticalAlign=top;shape=mxgraph.weblogos.mongodb;fontFamily=Helvetica;fontSize=12;" parent="1" vertex="1">
                    <mxGeometry x="-177" y="12.999999999999996" width="34" height="76.2" as="geometry"/>
                </mxCell>
                <mxCell id="16" value="" style="endArrow=none;html=1;fontFamily=Helvetica;fontSize=12;" parent="1" edge="1">
                    <mxGeometry width="50" height="50" relative="1" as="geometry">
                        <mxPoint x="-760" y="420" as="sourcePoint"/>
                        <mxPoint x="-760" y="120" as="targetPoint"/>
                    </mxGeometry>
                </mxCell>
                <mxCell id="20" value="" style="endArrow=none;html=1;fontFamily=Helvetica;fontSize=12;entryX=0.5;entryY=1;entryDx=0;entryDy=0;" parent="1" target="31" edge="1">
                    <mxGeometry width="50" height="50" relative="1" as="geometry">
                        <mxPoint x="-640" y="420" as="sourcePoint"/>
                        <mxPoint x="-640.42" y="-30" as="targetPoint"/>
                        <Array as="points"/>
                    </mxGeometry>
                </mxCell>
                <mxCell id="21" value="" style="endArrow=none;html=1;fontFamily=Helvetica;fontSize=12;" parent="1" edge="1">
                    <mxGeometry width="50" height="50" relative="1" as="geometry">
                        <mxPoint x="-520" y="420" as="sourcePoint"/>
                        <mxPoint x="-520" y="120" as="targetPoint"/>
                    </mxGeometry>
                </mxCell>
                <mxCell id="22" value="" style="endArrow=none;html=1;fontFamily=Helvetica;fontSize=12;entryX=0.5;entryY=1;entryDx=0;entryDy=0;" parent="1" target="26" edge="1">
                    <mxGeometry width="50" height="50" relative="1" as="geometry">
                        <mxPoint x="-281" y="420" as="sourcePoint"/>
                        <mxPoint x="-281.42" y="-59.999999999999986" as="targetPoint"/>
                    </mxGeometry>
                </mxCell>
                <mxCell id="23" value="" style="endArrow=none;html=1;fontFamily=Helvetica;fontSize=12;" parent="1" edge="1">
                    <mxGeometry width="50" height="50" relative="1" as="geometry">
                        <mxPoint x="-160" y="420" as="sourcePoint"/>
                        <mxPoint x="-160" y="119.2" as="targetPoint"/>
                    </mxGeometry>
                </mxCell>
                <mxCell id="24" value="MongoDB" style="text;html=1;strokeColor=none;fillColor=none;align=center;verticalAlign=middle;whiteSpace=wrap;rounded=0;fontFamily=Helvetica;fontSize=12;" parent="1" vertex="1">
                    <mxGeometry x="-190" y="93.6" width="60" height="30" as="geometry"/>
                </mxCell>
                <mxCell id="25" value="Bucket S3" style="text;html=1;strokeColor=none;fillColor=none;align=center;verticalAlign=middle;whiteSpace=wrap;rounded=0;fontFamily=Helvetica;fontSize=12;" parent="1" vertex="1">
                    <mxGeometry x="-552.17" y="93.6" width="60" height="30" as="geometry"/>
                </mxCell>
                <mxCell id="26" value="Redis" style="text;html=1;strokeColor=none;fillColor=none;align=center;verticalAlign=middle;whiteSpace=wrap;rounded=0;fontFamily=Helvetica;fontSize=12;" parent="1" vertex="1">
                    <mxGeometry x="-311" y="93.6" width="60" height="30" as="geometry"/>
                </mxCell>
                <mxCell id="28" value="" style="verticalLabelPosition=bottom;html=1;verticalAlign=top;strokeWidth=1;align=center;outlineConnect=0;dashed=0;outlineConnect=0;shape=mxgraph.aws3d.s3Bucket;fillColor=#4286c5;strokeColor=#57A2D8;aspect=fixed;fontFamily=Helvetica;fontSize=12;" parent="1" vertex="1">
                    <mxGeometry x="-550" y="30" width="57.83" height="60" as="geometry"/>
                </mxCell>
                <mxCell id="30" value="" style="endArrow=none;html=1;fontFamily=Helvetica;fontSize=12;" parent="1" edge="1">
                    <mxGeometry width="50" height="50" relative="1" as="geometry">
                        <mxPoint x="-400" y="420" as="sourcePoint"/>
                        <mxPoint x="-400.34000000000003" y="119.2" as="targetPoint"/>
                    </mxGeometry>
                </mxCell>
                <mxCell id="31" value="Proxy" style="text;html=1;strokeColor=none;fillColor=none;align=center;verticalAlign=middle;whiteSpace=wrap;rounded=0;fontFamily=Helvetica;fontSize=12;" parent="1" vertex="1">
                    <mxGeometry x="-670" y="93.6" width="60" height="30" as="geometry"/>
                </mxCell>
                <mxCell id="32" value="Middleware" style="text;html=1;strokeColor=none;fillColor=none;align=center;verticalAlign=middle;whiteSpace=wrap;rounded=0;fontFamily=Helvetica;fontSize=12;" parent="1" vertex="1">
                    <mxGeometry x="-430" y="93.6" width="60" height="30" as="geometry"/>
                </mxCell>
                <mxCell id="48" value="id del post" style="endArrow=classic;html=1;fontFamily=Helvetica;fontSize=12;" parent="1" edge="1">
                    <mxGeometry x="-0.5117" y="-5" width="50" height="50" relative="1" as="geometry">
                        <mxPoint x="-160.99999999999997" y="300" as="sourcePoint"/>
                        <mxPoint x="-401" y="320" as="targetPoint"/>
                        <mxPoint as="offset"/>
                    </mxGeometry>
                </mxCell>
                <mxCell id="50" value="" style="endArrow=classic;html=1;fontFamily=Helvetica;fontSize=12;" parent="1" edge="1">
                    <mxGeometry width="50" height="50" relative="1" as="geometry">
                        <mxPoint x="-760" y="130" as="sourcePoint"/>
                        <mxPoint x="-640" y="140" as="targetPoint"/>
                    </mxGeometry>
                </mxCell>
                <mxCell id="52" value="comentario&lt;br&gt;token" style="edgeLabel;html=1;align=center;verticalAlign=middle;resizable=0;points=[];fontSize=12;fontFamily=Helvetica;" parent="50" vertex="1" connectable="0">
                    <mxGeometry x="-0.775" y="1" relative="1" as="geometry">
                        <mxPoint x="46" as="offset"/>
                    </mxGeometry>
                </mxCell>
                <mxCell id="61" value="" style="endArrow=classic;html=1;fontFamily=Helvetica;fontSize=12;" parent="1" edge="1">
                    <mxGeometry width="50" height="50" relative="1" as="geometry">
                        <mxPoint x="-640.08" y="150" as="sourcePoint"/>
                        <mxPoint x="-400.08" y="170" as="targetPoint"/>
                    </mxGeometry>
                </mxCell>
                <mxCell id="64" value="" style="shape=image;verticalLabelPosition=bottom;verticalAlign=top;imageAspect=0;aspect=fixed;image=data:image/svg+xml,PHN2ZyB4bWxucz0iaHR0cDovL3d3dy53My5vcmcvMjAwMC9zdmciIHhtbG5zOnhsaW5rPSJodHRwOi8vd3d3LnczLm9yZy8xOTk5L3hsaW5rIiB3aWR0aD0iMjU2IiBoZWlnaHQ9IjI1NS45OTg5OTI5MTk5MjE4OCIgdmlld0JveD0iMCAwIDI1NiAyNTUuOTk4OTkyOTE5OTIxODgiIHZlcnNpb249IjEuMSIgcHJlc2VydmVBc3BlY3RSYXRpbz0ieE1pZFlNaWQiPgogICAgPGc+CiAgICAgICAgPHBhdGggZD0iTTE2MC4yMjcsMTc4LjUxODYgTDE4Ny44NTcsMTc4LjUxODYgTDE0My43NSw2NC4wNDg2IEwxMTMuMjAxLDY0LjA0ODYgTDY5LjA5NCwxNzguNTE4NiBMOTYuNzI2LDE3OC41MTg2IEwxMDMuOTM0LDE1OS4xMjg2IEwxNDUuNjA5LDE1OS4xMjg2IEwxMzguMDY1LDEzNy42NzI2IEwxMTAuNjI1LDEzNy42NzI2IEwxMjguNDc1LDg4LjQxODYgTDE2MC4yMjcsMTc4LjUxODYgWiBNMjUxLjMzOSw5My43NjggQzI1MC4zNTcsOTAuMjMyIDI0Ni43MDUsODguMTU1IDI0My4xNTQsODkuMTQxIEMyMzkuNjE3LDkwLjEyMyAyMzcuNTQ0LDkzLjc4NyAyMzguNTI2LDk3LjMyNCBDMjQxLjI5OSwxMDcuMzA5IDI0Mi43MDQsMTE3LjYzIDI0Mi43MDQsMTI4IEMyNDIuNzA0LDE5MS4yNDggMTkxLjI0OCwyNDIuNzAyIDEyOCwyNDIuNzAyIEM2NC43NTIsMjQyLjcwMiAxMy4yOTcsMTkxLjI0OCAxMy4yOTcsMTI4IEMxMy4yOTcsNjQuNzUxIDY0Ljc1MiwxMy4yOTYgMTI4LDEzLjI5NiBDMTU0Ljc5MywxMy4yOTYgMTgwLjcxOCwyMi44MTQgMjAxLjE3OSwzOS43NTIgQzIwMC4zODMsNDEuNjUyIDE5OS45NDEsNDMuNzM3IDE5OS45NDEsNDUuOTI1IEMxOTkuOTQxLDU0Ljc2IDIwNy4xMDMsNjEuOTIyIDIxNS45MzgsNjEuOTIyIEMyMjQuNzczLDYxLjkyMiAyMzEuOTM1LDU0Ljc2IDIzMS45MzUsNDUuOTI1IEMyMzEuOTM1LDM3LjA5IDIyNC43NzMsMjkuOTI4IDIxNS45MzgsMjkuOTI4IEMyMTQuMjM3LDI5LjkyOCAyMTIuNiwzMC4xOTkgMjExLjA2MiwzMC42OTEgQzE4OC4wMjIsMTEuMDU2IDE1OC41MTMsMCAxMjgsMCBDNTcuNDIxLDAgMCw1Ny40MiAwLDEyOCBDMCwxOTguNTc5IDU3LjQyMSwyNTUuOTk5IDEyOCwyNTUuOTk5IEMxOTguNTc5LDI1NS45OTkgMjU2LDE5OC41NzkgMjU2LDEyOCBDMjU2LDExNi40MjggMjU0LjQzMywxMDQuOTEgMjUxLjMzOSw5My43NjggWiIgZmlsbD0iIzExMkI0OSIvPgogICAgPC9nPgo8L3N2Zz4=" parent="1" vertex="1">
                    <mxGeometry x="-429.2" y="34.4" width="59.2" height="59.2" as="geometry"/>
                </mxCell>
                <mxCell id="65" value="" style="shape=image;verticalLabelPosition=bottom;verticalAlign=top;imageAspect=0;aspect=fixed;image=data:image/svg+xml,PHN2ZyB4bWxucz0iaHR0cDovL3d3dy53My5vcmcvMjAwMC9zdmciIHhtbG5zOnhsaW5rPSJodHRwOi8vd3d3LnczLm9yZy8xOTk5L3hsaW5rIiB2aWV3Qm94PSItMC4xMTk5OTk5OTk5OTk5OTk2MSAtMC43OSA1Ni4xNzE5OTk5OTk5OTk5OSA2NS42MjEwMDAwMDAwMDAwMSIgZmlsbD0iI2ZmZiIgZmlsbC1ydWxlPSJldmVub2RkIiBzdHJva2U9IiMwMDAiIHN0cm9rZS1saW5lY2FwPSJyb3VuZCIgc3Ryb2tlLWxpbmVqb2luPSJyb3VuZCIgd2lkdGg9IjIxMTkiIGhlaWdodD0iMjUwMCI+PHVzZSB4bGluazpocmVmPSIjYSIgeD0iLjUiIHk9Ii41Ii8+PHN5bWJvbCBpZD0iYSIgb3ZlcmZsb3c9InZpc2libGUiPjxnIHN0cm9rZT0ibm9uZSIgZmlsbC1ydWxlPSJub256ZXJvIj48cGF0aCBkPSJNOC40NjcgMjUuMTUyczQuNi0zLjk5OCAxOC4yMTItMy45OThjMTIuNDg4IDAgMTUuOTk4IDIuODMgMTkuNTYyIDRsLTE4LjU5NiA5LjA3NXoiIGZpbGw9IiNjOTc4MWYiLz48cGF0aCBkPSJNNi41MjYgMzcuMTg3Yy4wODQgMS43MzUgMS44Mi45MzIgMi42MDUuNC43NDYtLjUxNS45NjQtLjA4NyAxLjAzLTEuMTAzbC4wODItMi4wMDZjLTEuMTMtLjEwMi0yLjM1NS4xNjYtMy4yOC44MzctLjQ3OC4zNDgtMS4zNyAxLjQ1LS40MzUgMS44ODIiIGZpbGw9IiNmNmQyYTIiLz48cGF0aCBkPSJNNi41MjYgMzcuMTg3Yy4yNTMtLjA5My41Mi0uMTYuNjktLjM5IiBmaWxsPSIjYzZiMTk4Ii8+PHBhdGggZD0iTTEwLjUzNSAxNi41MjRjLTYuNjUtMS44Ny0xLjcwNS0xMC4zMTQgMy42MzQtNi44NHptMjkuNTQtNy40NzRjNS4yNjMtMy42OTIgMTAuMDIgNC42MzcgMy45MDIgNi43MzN6IiBmaWxsPSIjMzdhYmM4Ii8+PHBhdGggZD0iTTQxLjIxIDU4LjUzNGMxLjMzNy44MjYgMy43OCAzLjMyNCAxLjc3NSA0LjUzNS0xLjkyNyAxLjc2Mi0zLjAwNS0xLjkzNC00LjY5Ni0yLjQ0Ni43MjgtLjk4OCAxLjY1LTEuODg4IDIuOTItMi4wOXptLTIzLjg4MyAyLjgyM2MtMS41Ny4yNDItMi40NTIgMS42NTYtMy43NiAyLjM3NC0xLjIzMy43MzQtMS43MDQtLjIzNS0xLjgxNS0uNDMyLS4xOTYtLjA4OC0uMTc3LjA4Mi0uNDc1LS4yMTgtMS4xNDMtMS44IDEuMTktMy4xMTggMi40MDYtNC4wMTIgMS42OTItLjM0MiAyLjc1MyAxLjEyMyAzLjY0NSAyLjI4OHoiIGZpbGw9IiNmNmQyYTIiLz48cGF0aCBkPSJNMTAuODEzIDE0LjJjLS44NzctLjQ2LTEuNTItMS4wOTItLjk4NC0yLjEwNi40OTctLjkzOCAxLjQyLS44MzYgMi4yOTctLjM3M3ptMzEuNzgtLjg4Yy44NzctLjQ2MyAxLjUyLTEuMDkzLjk4NC0yLjEwNi0uNDk3LS45MzgtMS40Mi0uODM2LTIuMjk3LS4zNzN6IiBmaWxsPSIjMDc3ZTkxIi8+PHBhdGggZD0iTTQ4LjYzIDM2Ljk2NmMtLjA4NCAxLjczNC0xLjgyLjkzMi0yLjYwNS40LS43NDYtLjUxNS0uOTY0LS4wODctMS4wMy0xLjEwM2wtLjA4Mi0yLjAwNmMxLjEzLS4xMDIgMi4zNTUuMTY2IDMuMjguODM3LjQ3OC4zNDggMS4zNyAxLjQ1LjQzNSAxLjg4MiIgZmlsbD0iI2Y2ZDJhMiIvPjxwYXRoIGQ9Ik00OC42MyAzNi45NjdjLS4yNTMtLjA5My0uNTItLjE2LS42OS0uMzg4IiBmaWxsPSIjYzZiMTk4Ii8+PHBhdGggZD0iTTI2LjkxMiA1LjU0YzYuNjU3IDAgMTIuODk3Ljk1IDE2LjE1IDcuMzM3IDIuOTIgNy4xNiAxLjg4MiAxNC44NzggMi4zMjcgMjIuNDQ0LjM4MyA2LjQ5NiAxLjIzIDE0LTEuNzg4IDIwLjAyMi0zLjE3NSA2LjMzNC0xMS4xMSA3LjkyNy0xNy42NDMgNy42OTMtNS4xMzQtLjE4My0xMS4zMzUtMS44NTYtMTQuMjMyLTYuNTQtMy40LTUuNDk1LTEuOC0xMy42NjYtMS41NDMtMTkuNzguMjkyLTcuMjQzLTEuOTY0LTE0LjUwNy40MTgtMjEuNTk1IDIuNDcyLTcuMzUyIDkuMTM4LTkuMDE0IDE2LjMxMi05LjU4IiBmaWxsPSIjMzdhYmM4Ii8+PHBhdGggZD0iTTI4LjA4NyAxNC40NjVjMS4xOTUgNi45MzggMTIuNTUgNS4xMDQgMTAuOTItMS44OS0xLjQ2Mi02LjI3NS0xMS4zMTctNC41MzgtMTAuOTIgMS44OW0tMTMuNTcgMS4xMjJjMS41NSA2LjA0IDExLjIzMyA0LjQ5NCAxMC44NjgtMS41NjUtLjQzNS03LjI1Ny0xMi4zNS01Ljg1Ni0xMC44NjggMS41NjVtMTUuNzc1IDYuOTY2Yy4wMDUuOTI3LjIxNyAxLjgzMy4wMzQgMi44NzQtLjIzLjQzNS0uNjgzLjQ4LTEuMDczLjY1N2ExLjU4IDEuNTggMCAwIDEtMS4yMDktLjk0MmMtLjE0LTEuMDk1LjA1Mi0yLjE1Ni4wODctMy4yNXoiLz48cGF0aCBkPSJNMTUuNTUzIDE0LjYwMmMwLS45OC43My0xLjc3IDEuNjM1LTEuNzdzMS42MzUuNzkgMS42MzUgMS43Ny0uNzMgMS43Ny0xLjYzNSAxLjc3LTEuNjM1LS43OS0xLjYzNS0xLjc3eiIgZmlsbD0iIzAwMCIvPjxwYXRoIGQ9Ik0xNy41NDYgMTVjMC0uMjUuMTcyLS40NS4zODYtLjQ1cy4zODUuMi4zODUuNDUtLjE3Mi40NS0uMzg1LjQ1LS4zODYtLjItLjM4Ni0uNDV6Ii8+PHBhdGggZD0iTTI5LjI4IDE0LjE2MmMwLS45OC43MTctMS43NyAxLjYwOC0xLjc3czEuNjA4Ljc5IDEuNjA4IDEuNzctLjcxNyAxLjc3LTEuNjA4IDEuNzctMS42MDgtLjc5LTEuNjA4LTEuNzd6IiBmaWxsPSIjMDAwIi8+PHBhdGggZD0iTTMxLjI0IDE0LjU2YzAtLjI1LjE3LS40NS4zOC0uNDVzLjM4LjIuMzguNDUtLjE3LjQ1LS4zOC40NS0uMzgtLjItLjM4LS40NXptLTUuNjIgOC4xMzJjLS43MTMgMS43MjcuMzk4IDUuMTggMi4zMzQgMi42My0uMTQtMS4wOTUuMDUyLTIuMTU2LjA4Ni0zLjI1eiIvPjxwYXRoIGQ9Ik0yNS41MDYgMTkuMzY3Yy0xLjMzLjExMy0yLjQxNyAxLjY5Mi0xLjcyNSAyLjk0Mi45MTYgMS42NTIgMi45Ni0uMTQ2IDQuMjMyLjAyMiAxLjQ2NS4wMyAyLjY2NSAxLjU0NyAzLjg0Mi4yNzQgMS4zMS0xLjQxMy0uNTYzLTIuNzk0LTIuMDI2LTMuNHoiIGZpbGw9IiNmNmQyYTIiLz48cGF0aCBkPSJNOC40NjcgMjUuMTUybC4zOTIgNi41MTdjLS4wMyAxLjk2MyAxLjg1NC43MjMgMS45NTIgMy44MXMtMS4xNCAyLjUwMi0xLjc5NCA0LjAxMy0xLjA5NiA4LjU4Ny0xLjA5NiA4LjU4Ny42NyAxLjMyMiAyLjc2IDIuNTEzIDUuNDU3IDEuODYgOC4zNjcgMS43MjggNC45OTItLjc1NSA1LjUxMy0xLjEgMS4zODMtMS40MzQgMS43MDgtMi4yNzcgMS4wMDMtNy43ODUuOTU2LTExLjc1Ny0uNzA1LTcuNjM3LS43MDUtNy42Mzd6IiBmaWxsPSIjZWY5MzI1Ii8+PHBhdGggZD0iTTI2LjkxNCA0NC40OTNjLTguNTc2Ljk1Ni0xOC41MjctMS42ODctMTguNTI3LTEuNjg3cy4xNDYtMi42OC44LTMuNjI0YzguOTIgMi43NiAxNy45MTggMS44ODUgMTcuOTE4IDEuODg1LjEzMyAxLjI1LjA0IDIuMjQ2LS4xOCAzLjQyNnptLTEuMDc3IDUuMjgzYy04LjU3Ni45NTYtMTcuOTEzLTEuNzkzLTE3LjkxMy0xLjc5M3MtLjAzLTIuNTc1LjMxLTMuNzA2YzguOTIgMi43NiAxOC40NDYgMi4wNzIgMTguNDQ2IDIuMDcyLS4wOCAxLjM2LS4yNzIgMi42OTYtLjg0NCAzLjQyNnoiIGZpbGw9IiNlNWU1ZTUiLz48cGF0aCBkPSJNNDYuMjQyIDI1LjE1MmwtLjAzIDYuNTE3Yy4wMyAxLjk2My0xLjE0LjcyMy0xLjI0IDMuODFzMS4xNTUgMi41MDIgMS44MTYgNC4wMTMgMS4xIDguNTg3IDEuMSA4LjU4Ny0uNjc4IDEuMzIyLTIuNzk2IDIuNTEzLTUuNTIzIDEuODYtOC40NzIgMS43MjgtNS4wNTUtLjc1NS01LjU4Mi0xLjEtMS40LTEuNDM0LTEuNzMtMi4yNzctMS4wMTYtNy43ODUtLjk2Ny0xMS43NTcuNzEzLTcuNjM3LjcxMy03LjYzN3oiIGZpbGw9IiNlZjkzMjUiLz48cGF0aCBkPSJNMjguNjY3IDQ0LjQ5M2M4LjY4NC45NTYgMTguNzYyLTEuNjg3IDE4Ljc2Mi0xLjY4N3MtLjE0OC0yLjY4LS44LTMuNjI0Yy05LjAzMiAyLjc2LTE4LjE0MyAxLjg4NS0xOC4xNDMgMS44ODUtLjEzNSAxLjI1LS4wNCAyLjI0Ni4xODMgMy40MjZ6bTEuMDkzIDUuMjgzYzguNjg0Ljk1NiAxOC4xMzgtMS43OTMgMTguMTM4LTEuNzkzcy4wMy0yLjU3NS0uMzE1LTMuNzA2Yy05LjAzIDIuNzYtMTguNjc4IDIuMDcyLTE4LjY3OCAyLjA3Mi4wOCAxLjM2LjI3NSAyLjY5Ni44NTUgMy40MjZ6IiBmaWxsPSIjZTVlNWU1Ii8+PHBhdGggZD0iTTQ5LjcwNSAzMy41MDRjLS4yNy41MS0uODA0Ljc1NC0xLjE5My41NDhsLS4zMTItLjE2NWMtLjM5LS4yMDYtLjQ4Ni0uNzgzLS4yMTYtMS4yOTRsNi4wNzctMTEuNDU1Yy4yNy0uNTEuODA0LS43NTQgMS4xOTMtLjU0OGwuMzEyLjE2NWMuMzkuMjA2LjQ4Ni43ODMuMjE2IDEuMjk0eiIgZmlsbD0iI2QyZTI2MSIvPjxwYXRoIGQ9Ik00Ni44MzYgMzguOTE0Yy0uMTU3LjI5Ni0uNi4zNy0uOTkuMTY0bC0uMzEyLS4xNjVjLS4zOS0uMjA2LS41NzctLjYxMy0uNDItLjkxbDIuODUtNS4zNzRjLjE1Ny0uMjk2LjYtLjM3Ljk5LS4xNjRsLjMxMi4xNjVjLjM5LjIwNi41NzcuNjEzLjQyLjkxeiIgZmlsbD0iIzAwMCIvPjxwYXRoIGQ9Ik00OS4zNyAzMi40MzVsLS4zMTItLjE2NWMtLjM5LS4yMDYtLjc4Ny0uMjE3LS44OS0uMDI1bC0uMTgyLjM0M2MuMTAyLS4xOTIuNS0uMTguODkuMDI1bC4zMTIuMTY1Yy4zOS4yMDYuNjIyLjUyOC41Mi43MmwuMTgyLS4zNDNjLjEwMi0uMTkyLS4xMy0uNTE1LS41Mi0uNzJ6IiBmaWxsPSIjOWI5YjliIi8+PHBhdGggZD0iTTQ1LjU1IDM1LjA3NmMuMi0uNTM3LjkyLS43NiAxLjYxNC0uNTAyczEuMDkzLjkuODkzIDEuNDM1LS45Mi43Ni0xLjYxNC41MDItMS4wOTMtLjktLjg5My0xLjQzNXoiIGZpbGw9IiNmNmQyYTIiLz48cGF0aCBkPSJNNS42NyAzMy42ODdjLjI0Ni41Mi43Ny44IDEuMTY3LjYwMmwuMzItLjE1Yy4zOTgtLjE4OC41Mi0uNzYyLjI3NS0xLjI4MmwtNS41NDUtMTEuNzJjLS4yNDYtLjUyLS43NjgtLjgtMS4xNjctLjYwMmwtLjMyLjE1Yy0uMzk4LjE4OC0uNTIuNzYyLS4yNzUgMS4yODJ6IiBmaWxsPSIjZDJlMjYxIi8+PHBhdGggZD0iTTguMyAzOS4yMjVjLjE0My4zMDMuNTgzLjM5Ny45NzguMjFsLjMyLS4xNWMuMzk4LS4xODguNjA0LS41ODYuNDYtLjg5bC0yLjYtNS40OTdjLS4xNDMtLjMwMy0uNTgzLS4zOTYtLjk3OC0uMjFsLS4zMi4xNWMtLjM5OC4xODgtLjYwNC41ODYtLjQ2Ljg5eiIgZmlsbD0iIzAwMCIvPjxwYXRoIGQ9Ik02LjA1NSAzMi42MzdsLjMyLS4xNWMuMzk4LS4xODguNzk2LS4xOC44OS4wMTZsLjE2Ni4zNTJjLS4wOTMtLjE5Ny0uNDktLjIwMy0uODktLjAxNmwtLjMyLjE1Yy0uMzk4LjE4OC0uNjQ2LjUtLjU1My42OTZsLS4xNjYtLjM1MmMtLjA5My0uMTk2LjE1Mi0uNTA4LjU1My0uNjk2eiIgZmlsbD0iIzliOWI5YiIvPjxwYXRoIGQ9Ik0xMCAzNS4yMjZjLjIuNTM3LS4yIDEuMTc3LS44OTMgMS40MzVzLTEuNDE1LjAzNS0xLjYxNC0uNTAyLjItMS4xNzcuODkzLTEuNDM1UzkuOCAzNC42OSAxMCAzNS4yMjZ6IiBmaWxsPSIjZjZkMmEyIi8+PHBhdGggZD0iTTExLjMxNiAxOS4xMjZjLS4yNjQuNDgtLjg4OC42NDQtMS4zOTMuMzY3bC0uNTgtLjMyYy0uNTA1LS4yNzctLjctLjg5LS40MzYtMS4zN0wxNC45NSA2LjgyNWMuMjY0LS40OC44ODgtLjY0NCAxLjM5My0uMzY3bC41OC4zMmMuNTA1LjI3Ny42MzUuNzk2LjQzNiAxLjM3LTIuMTE4IDYuMS02LjA0NSAxMC45NzgtNi4wNDUgMTAuOTc4eiIgZmlsbD0iIzk2MDAwMCIvPjxwYXRoIGQ9Ik0xMi45MTUgMTIuODU2YzEuODM4LTMuMzM4IDMuMDQ0LTYuMiAyLjc1OC02LjUzNWwuMDA2LS4wMTItLjAyMi0uMDEtLjAwMy0uMDAyQzEyLjgyOCA0Ljc2NyA5LjAyNyA2LjI4IDcuMTUgOS42OXMtMS4xMjIgNy40MjYgMS42ODQgOC45OWgtLjAwMWMuMDEyLjAwNC4wMTguMDEuMDI2LjAxNGwuMDA3LS4wMTJjLjQzLjA2OCAyLjItMi40ODggNC4wNDgtNS44MjZ6IiBmaWxsPSIjNTk1OTU5Ii8+PHBhdGggZD0iTTQzLjIwNyAxOS4xNWMuMjUuNDg3Ljg3LjY3IDEuMzgyLjQwN2wuNi0uMzA0Yy41MTMtLjI2My43MjYtLjg3LjQ3NS0xLjM1OEwzOS45MyA2Ljc0NmMtLjI1LS40ODctLjg3LS42Ny0xLjM4Mi0uNDA3bC0uNi4zMDRjLS41MTMuMjYzLS42NTguNzc4LS40NzUgMS4zNTggMS45NCA2LjE2IDUuNzI1IDExLjE0OCA1LjcyNSAxMS4xNDh6IiBmaWxsPSIjOTYwMDAwIi8+PHBhdGggZD0iTTQxLjc5IDEyLjgzOGMtMS43NC0zLjQtMi44NjUtNi4yOTUtMi41NjgtNi42MTJsLS4wMDctLjAxMmMuMDA4LS4wMDQuMDE3LS4wMDYuMDI0LS4wMWwuMDAzLS4wMDFjMi44Ny0xLjQ0NiA2LjYyMy4xNzQgOC40IDMuNjRzLjkwNyA3LjQ1NC0xLjk0MyA4LjkzNnYuMDAyYy0uMDEyLjAwNC0uMDIuMDEtLjAyNy4wMTRsLS4wMDctLjAxMmMtLjQzLjA1Ni0yLjEzOC0yLjU1LTMuODgtNS45NHoiIGZpbGw9IiM1OTU5NTkiLz48cGF0aCBkPSJNNDcuNDU3IDExLjQwNnMtMi4xMTUtNS4zLTQuNTY4LTguMDg3LTI2LjQ1My0zLjc1LTMwLjM5NCAwLTUuNDI3IDguMDg4LTUuNDI3IDguMDg4di0xLjE3NFM4Ljg5IDUuMDggMTIuNDk1IDIuMTQ1czI3LjI4OC0yLjc4MyAzMC4zNDQgMCA0LjYxOCA4LjA4NyA0LjYxOCA4LjA4N3oiIGZpbGw9IiMzNTM1MzUiLz48cGF0aCBkPSJNNDguMTY1IDkuNjM4Yy41Ljk5Ni41OTMgMS45NjcuMTg1IDIuMTc2cy0xLjE0OC0uNDI0LTEuNjYtMS40Mi0uNTkzLTEuOTY2LS4xODUtMi4xNzYgMS4xNDguNDI0IDEuNjYgMS40MnpNNi42MzggOS40OGMuNTQtLjk4IDEuMjk3LTEuNTkzIDEuNy0xLjM3MnMuMjkyIDEuMi0uMjQ4IDIuMTctMS4yOTcgMS41OTMtMS43IDEuMzctLjI5Mi0xLjIuMjQ4LTIuMTd6IiBmaWxsPSIjOTYwMDAwIi8+PHBhdGggZD0iTTM4LjQxNCAxMC4yOUgxNi4wM2MtNC4wMiAwLTQuMDA1IDEwLjY2Ni0uMjMyIDExLjI4bDcuODA1LS41Yy45NDQgMCAyLjgyNy0zLjY1IDMuMTgtMy45MzZzMS41MTgtLjMyMiAxLjk3NiAwIDEuNSAzLjU2OCAyLjQ0NCAzLjU2OGw3LjgwNS44N2MzLjY0NS0xLjY3NSAyLjcyNi0xMS4yOC0uNTg3LTExLjI4eiIgb3BhY2l0eT0iLjYiLz48cGF0aCBkPSJNMjEuOTcyIDEyLjQ5NWwtOC40My0uMDE1Yy0uMzUzIDEuMTU3LS43NDcgMi42Mi0uNTUyIDQuMDQ0bDkuMDMzLjAxYzEuNzggMCAzLjI4LjMzNiA0LjY3NC43YS43OS43OSAwIDAgMSAuMDg2LS4wOTRjLjM1My0uMjg3IDEuNTE3LS4zMjIgMS45NzYgMCAuMTE4LjA4My4yNzcuMzY0LjQ2Mi43MzJhMTAuOTIgMTAuOTIgMCAwIDAgMi4xNjQuMjYybDkuNzgyLjAxYy4zODctMS4yOTIuMTAyLTIuNjc4LjAxNS0zLjk4LTIuOTY4IDAtNy42ODYtLjA2Ny05Ljk0OC0uMDY3LTMuMTg3IDAtNS45Ny0xLjUyNi05LjI1OC0xLjZ6IiBvcGFjaXR5PSIuNSIvPjxwYXRoIGQ9Ik0yNS4zMzggMTkuMjk3Yy0uMDk4LTIuMyA0LjI5NC0yLjU4OCA0LjgxMy0uNjYycy00LjU5NiAyLjM3LTQuODEyLjY2MmMtLjE3My0xLjM2IDAgMCAwIDB6IiBmaWxsPSIjMDAwIi8+PC9nPjwvc3ltYm9sPjwvc3ZnPg==" parent="1" vertex="1">
                    <mxGeometry x="-662.78" y="35.48" width="45.56" height="53.72" as="geometry"/>
                </mxCell>
                <mxCell id="66" value="getSignedUrl" style="endArrow=classic;html=1;fontFamily=Helvetica;fontSize=12;" parent="1" edge="1">
                    <mxGeometry width="50" height="50" relative="1" as="geometry">
                        <mxPoint x="-400" y="230" as="sourcePoint"/>
                        <mxPoint x="-520.0000000000001" y="240" as="targetPoint"/>
                    </mxGeometry>
                </mxCell>
                <mxCell id="67" value="url" style="endArrow=classic;html=1;fontFamily=Helvetica;fontSize=12;" parent="1" edge="1">
                    <mxGeometry width="50" height="50" relative="1" as="geometry">
                        <mxPoint x="-519.6" y="250" as="sourcePoint"/>
                        <mxPoint x="-400" y="260" as="targetPoint"/>
                    </mxGeometry>
                </mxCell>
                <mxCell id="69" value="token" style="endArrow=classic;html=1;fontFamily=Helvetica;fontSize=12;" parent="1" edge="1">
                    <mxGeometry width="50" height="50" relative="1" as="geometry">
                        <mxPoint x="-399.9999999999999" y="180" as="sourcePoint"/>
                        <mxPoint x="-280" y="190" as="targetPoint"/>
                    </mxGeometry>
                </mxCell>
                <mxCell id="70" value="usuario" style="endArrow=classic;html=1;fontFamily=Helvetica;fontSize=12;" parent="1" edge="1">
                    <mxGeometry width="50" height="50" relative="1" as="geometry">
                        <mxPoint x="-280" y="200" as="sourcePoint"/>
                        <mxPoint x="-400" y="210" as="targetPoint"/>
                    </mxGeometry>
                </mxCell>
                <mxCell id="71" value="usuario&lt;br&gt;comentario&lt;br&gt;url" style="endArrow=classic;html=1;fontFamily=Helvetica;fontSize=12;" parent="1" edge="1">
                    <mxGeometry x="-0.4966" y="-5" width="50" height="50" relative="1" as="geometry">
                        <mxPoint x="-399.9999999999999" y="270" as="sourcePoint"/>
                        <mxPoint x="-160" y="290" as="targetPoint"/>
                        <mxPoint as="offset"/>
                    </mxGeometry>
                </mxCell>
                <mxCell id="72" value="url firmada" style="endArrow=classic;html=1;fontFamily=Helvetica;fontSize=12;" parent="1" edge="1">
                    <mxGeometry x="-0.674" y="-5" width="50" height="50" relative="1" as="geometry">
                        <mxPoint x="-401.09000000000003" y="330" as="sourcePoint"/>
                        <mxPoint x="-760" y="360" as="targetPoint"/>
                        <mxPoint as="offset"/>
                    </mxGeometry>
                </mxCell>
                <mxCell id="73" value="" style="endArrow=classic;html=1;fontFamily=Helvetica;fontSize=12;" parent="1" edge="1">
                    <mxGeometry width="50" height="50" relative="1" as="geometry">
                        <mxPoint x="-760" y="370" as="sourcePoint"/>
                        <mxPoint x="-640" y="380" as="targetPoint"/>
                    </mxGeometry>
                </mxCell>
                <mxCell id="74" value="PUT de la&lt;br&gt;imagen" style="edgeLabel;html=1;align=center;verticalAlign=middle;resizable=0;points=[];fontSize=12;fontFamily=Helvetica;" parent="73" vertex="1" connectable="0">
                    <mxGeometry x="-0.775" y="1" relative="1" as="geometry">
                        <mxPoint x="46" y="10" as="offset"/>
                    </mxGeometry>
                </mxCell>
                <mxCell id="75" value="" style="endArrow=classic;html=1;fontFamily=Helvetica;fontSize=12;" parent="1" edge="1">
                    <mxGeometry width="50" height="50" relative="1" as="geometry">
                        <mxPoint x="-640" y="390" as="sourcePoint"/>
                        <mxPoint x="-520" y="400" as="targetPoint"/>
                    </mxGeometry>
                </mxCell>
            </root>
        </mxGraphModel>
    </diagram>
</mxfile>